<?xml version="1.0" encoding="utf-8" standalone="no"?>
<!DOCTYPE svg PUBLIC "-//W3C//DTD SVG 1.1//EN"
  "http://www.w3.org/Graphics/SVG/1.1/DTD/svg11.dtd">
<!-- Created with matplotlib (http://matplotlib.org/) -->
<svg height="396pt" version="1.1" viewBox="0 0 576 396" width="576pt" xmlns="http://www.w3.org/2000/svg" xmlns:xlink="http://www.w3.org/1999/xlink">
 <defs>
  <style type="text/css">
*{stroke-linecap:butt;stroke-linejoin:round;stroke-miterlimit:100000;}
  </style>
 </defs>
 <g id="figure_1">
  <g id="patch_1">
   <path d="M 0 396 
L 576 396 
L 576 0 
L 0 0 
z
" style="fill:#ffffff;"/>
  </g>
  <g id="axes_1">
   <g id="patch_2">
    <path d="M 72 356.4 
L 518.4 356.4 
L 518.4 39.6 
L 72 39.6 
z
" style="fill:#eaeaf2;"/>
   </g>
   <g id="matplotlib.axis_1">
    <g id="xtick_1">
     <g id="line2d_1">
      <path clip-path="url(#p0518678b27)" d="M 72 356.4 
L 72 39.6 
" style="fill:none;stroke:#ffffff;stroke-linecap:round;"/>
     </g>
     <g id="line2d_2">
      <defs>
       <path d="M 0 0 
L 0 0 
" id="m9fea6ae6d3" style="stroke:#262626;"/>
      </defs>
      <g>
       <use style="fill:#262626;stroke:#262626;" x="72.0" xlink:href="#m9fea6ae6d3" y="356.4"/>
      </g>
     </g>
     <g id="line2d_3">
      <g>
       <use style="fill:#262626;stroke:#262626;" x="72.0" xlink:href="#m9fea6ae6d3" y="39.6"/>
      </g>
     </g>
     <g id="text_1">
      <!-- 0 -->
      <defs>
       <path d="M 4.15625 35.296875 
Q 4.15625 48 6.765625 55.734375 
Q 9.375 63.484375 14.515625 67.671875 
Q 19.671875 71.875 27.484375 71.875 
Q 33.25 71.875 37.59375 69.546875 
Q 41.9375 67.234375 44.765625 62.859375 
Q 47.609375 58.5 49.21875 52.21875 
Q 50.828125 45.953125 50.828125 35.296875 
Q 50.828125 22.703125 48.234375 14.96875 
Q 45.65625 7.234375 40.5 3 
Q 35.359375 -1.21875 27.484375 -1.21875 
Q 17.140625 -1.21875 11.234375 6.203125 
Q 4.15625 15.140625 4.15625 35.296875 
M 13.1875 35.296875 
Q 13.1875 17.671875 17.3125 11.828125 
Q 21.4375 6 27.484375 6 
Q 33.546875 6 37.671875 11.859375 
Q 41.796875 17.71875 41.796875 35.296875 
Q 41.796875 52.984375 37.671875 58.78125 
Q 33.546875 64.59375 27.390625 64.59375 
Q 21.34375 64.59375 17.71875 59.46875 
Q 13.1875 52.9375 13.1875 35.296875 
" id="ArialMT-30"/>
      </defs>
      <g style="fill:#262626;" transform="translate(69.21953125 370.5578125)scale(0.1 -0.1)">
       <use xlink:href="#ArialMT-30"/>
      </g>
     </g>
    </g>
    <g id="xtick_2">
     <g id="line2d_4">
      <path clip-path="url(#p0518678b27)" d="M 139.687642 356.4 
L 139.687642 39.6 
" style="fill:none;stroke:#ffffff;stroke-linecap:round;"/>
     </g>
     <g id="line2d_5">
      <g>
       <use style="fill:#262626;stroke:#262626;" x="139.687642153" xlink:href="#m9fea6ae6d3" y="356.4"/>
      </g>
     </g>
     <g id="line2d_6">
      <g>
       <use style="fill:#262626;stroke:#262626;" x="139.687642153" xlink:href="#m9fea6ae6d3" y="39.6"/>
      </g>
     </g>
     <g id="text_2">
      <!-- 200 -->
      <defs>
       <path d="M 50.34375 8.453125 
L 50.34375 0 
L 3.03125 0 
Q 2.9375 3.171875 4.046875 6.109375 
Q 5.859375 10.9375 9.828125 15.625 
Q 13.8125 20.3125 21.34375 26.46875 
Q 33.015625 36.03125 37.109375 41.625 
Q 41.21875 47.21875 41.21875 52.203125 
Q 41.21875 57.421875 37.46875 61 
Q 33.734375 64.59375 27.734375 64.59375 
Q 21.390625 64.59375 17.578125 60.78125 
Q 13.765625 56.984375 13.71875 50.25 
L 4.6875 51.171875 
Q 5.609375 61.28125 11.65625 66.578125 
Q 17.71875 71.875 27.9375 71.875 
Q 38.234375 71.875 44.234375 66.15625 
Q 50.25 60.453125 50.25 52 
Q 50.25 47.703125 48.484375 43.546875 
Q 46.734375 39.40625 42.65625 34.8125 
Q 38.578125 30.21875 29.109375 22.21875 
Q 21.1875 15.578125 18.9375 13.203125 
Q 16.703125 10.84375 15.234375 8.453125 
z
" id="ArialMT-32"/>
      </defs>
      <g style="fill:#262626;" transform="translate(131.346235903 370.5578125)scale(0.1 -0.1)">
       <use xlink:href="#ArialMT-32"/>
       <use x="55.615234375" xlink:href="#ArialMT-30"/>
       <use x="111.23046875" xlink:href="#ArialMT-30"/>
      </g>
     </g>
    </g>
    <g id="xtick_3">
     <g id="line2d_7">
      <path clip-path="url(#p0518678b27)" d="M 207.375284 356.4 
L 207.375284 39.6 
" style="fill:none;stroke:#ffffff;stroke-linecap:round;"/>
     </g>
     <g id="line2d_8">
      <g>
       <use style="fill:#262626;stroke:#262626;" x="207.375284306" xlink:href="#m9fea6ae6d3" y="356.4"/>
      </g>
     </g>
     <g id="line2d_9">
      <g>
       <use style="fill:#262626;stroke:#262626;" x="207.375284306" xlink:href="#m9fea6ae6d3" y="39.6"/>
      </g>
     </g>
     <g id="text_3">
      <!-- 400 -->
      <defs>
       <path d="M 32.328125 0 
L 32.328125 17.140625 
L 1.265625 17.140625 
L 1.265625 25.203125 
L 33.9375 71.578125 
L 41.109375 71.578125 
L 41.109375 25.203125 
L 50.78125 25.203125 
L 50.78125 17.140625 
L 41.109375 17.140625 
L 41.109375 0 
z
M 32.328125 25.203125 
L 32.328125 57.46875 
L 9.90625 25.203125 
z
" id="ArialMT-34"/>
      </defs>
      <g style="fill:#262626;" transform="translate(199.033878056 370.5578125)scale(0.1 -0.1)">
       <use xlink:href="#ArialMT-34"/>
       <use x="55.615234375" xlink:href="#ArialMT-30"/>
       <use x="111.23046875" xlink:href="#ArialMT-30"/>
      </g>
     </g>
    </g>
    <g id="xtick_4">
     <g id="line2d_10">
      <path clip-path="url(#p0518678b27)" d="M 275.062926 356.4 
L 275.062926 39.6 
" style="fill:none;stroke:#ffffff;stroke-linecap:round;"/>
     </g>
     <g id="line2d_11">
      <g>
       <use style="fill:#262626;stroke:#262626;" x="275.062926459" xlink:href="#m9fea6ae6d3" y="356.4"/>
      </g>
     </g>
     <g id="line2d_12">
      <g>
       <use style="fill:#262626;stroke:#262626;" x="275.062926459" xlink:href="#m9fea6ae6d3" y="39.6"/>
      </g>
     </g>
     <g id="text_4">
      <!-- 600 -->
      <defs>
       <path d="M 49.75 54.046875 
L 41.015625 53.375 
Q 39.84375 58.546875 37.703125 60.890625 
Q 34.125 64.65625 28.90625 64.65625 
Q 24.703125 64.65625 21.53125 62.3125 
Q 17.390625 59.28125 14.984375 53.46875 
Q 12.59375 47.65625 12.5 36.921875 
Q 15.671875 41.75 20.265625 44.09375 
Q 24.859375 46.4375 29.890625 46.4375 
Q 38.671875 46.4375 44.84375 39.96875 
Q 51.03125 33.5 51.03125 23.25 
Q 51.03125 16.5 48.125 10.71875 
Q 45.21875 4.9375 40.140625 1.859375 
Q 35.0625 -1.21875 28.609375 -1.21875 
Q 17.625 -1.21875 10.6875 6.859375 
Q 3.765625 14.9375 3.765625 33.5 
Q 3.765625 54.25 11.421875 63.671875 
Q 18.109375 71.875 29.4375 71.875 
Q 37.890625 71.875 43.28125 67.140625 
Q 48.6875 62.40625 49.75 54.046875 
M 13.875 23.1875 
Q 13.875 18.65625 15.796875 14.5 
Q 17.71875 10.359375 21.1875 8.171875 
Q 24.65625 6 28.46875 6 
Q 34.03125 6 38.03125 10.484375 
Q 42.046875 14.984375 42.046875 22.703125 
Q 42.046875 30.125 38.078125 34.390625 
Q 34.125 38.671875 28.125 38.671875 
Q 22.171875 38.671875 18.015625 34.390625 
Q 13.875 30.125 13.875 23.1875 
" id="ArialMT-36"/>
      </defs>
      <g style="fill:#262626;" transform="translate(266.721520209 370.5578125)scale(0.1 -0.1)">
       <use xlink:href="#ArialMT-36"/>
       <use x="55.615234375" xlink:href="#ArialMT-30"/>
       <use x="111.23046875" xlink:href="#ArialMT-30"/>
      </g>
     </g>
    </g>
    <g id="xtick_5">
     <g id="line2d_13">
      <path clip-path="url(#p0518678b27)" d="M 342.750569 356.4 
L 342.750569 39.6 
" style="fill:none;stroke:#ffffff;stroke-linecap:round;"/>
     </g>
     <g id="line2d_14">
      <g>
       <use style="fill:#262626;stroke:#262626;" x="342.750568613" xlink:href="#m9fea6ae6d3" y="356.4"/>
      </g>
     </g>
     <g id="line2d_15">
      <g>
       <use style="fill:#262626;stroke:#262626;" x="342.750568613" xlink:href="#m9fea6ae6d3" y="39.6"/>
      </g>
     </g>
     <g id="text_5">
      <!-- 800 -->
      <defs>
       <path d="M 17.671875 38.8125 
Q 12.203125 40.828125 9.5625 44.53125 
Q 6.9375 48.25 6.9375 53.421875 
Q 6.9375 61.234375 12.546875 66.546875 
Q 18.171875 71.875 27.484375 71.875 
Q 36.859375 71.875 42.578125 66.421875 
Q 48.296875 60.984375 48.296875 53.171875 
Q 48.296875 48.1875 45.671875 44.5 
Q 43.0625 40.828125 37.75 38.8125 
Q 44.34375 36.671875 47.78125 31.875 
Q 51.21875 27.09375 51.21875 20.453125 
Q 51.21875 11.28125 44.71875 5.03125 
Q 38.234375 -1.21875 27.640625 -1.21875 
Q 17.046875 -1.21875 10.546875 5.046875 
Q 4.046875 11.328125 4.046875 20.703125 
Q 4.046875 27.6875 7.59375 32.390625 
Q 11.140625 37.109375 17.671875 38.8125 
M 15.921875 53.71875 
Q 15.921875 48.640625 19.1875 45.40625 
Q 22.46875 42.1875 27.6875 42.1875 
Q 32.765625 42.1875 36.015625 45.375 
Q 39.265625 48.578125 39.265625 53.21875 
Q 39.265625 58.0625 35.90625 61.359375 
Q 32.5625 64.65625 27.59375 64.65625 
Q 22.5625 64.65625 19.234375 61.421875 
Q 15.921875 58.203125 15.921875 53.71875 
M 13.09375 20.65625 
Q 13.09375 16.890625 14.875 13.375 
Q 16.65625 9.859375 20.171875 7.921875 
Q 23.6875 6 27.734375 6 
Q 34.03125 6 38.125 10.046875 
Q 42.234375 14.109375 42.234375 20.359375 
Q 42.234375 26.703125 38.015625 30.859375 
Q 33.796875 35.015625 27.4375 35.015625 
Q 21.234375 35.015625 17.15625 30.90625 
Q 13.09375 26.8125 13.09375 20.65625 
" id="ArialMT-38"/>
      </defs>
      <g style="fill:#262626;" transform="translate(334.409162363 370.5578125)scale(0.1 -0.1)">
       <use xlink:href="#ArialMT-38"/>
       <use x="55.615234375" xlink:href="#ArialMT-30"/>
       <use x="111.23046875" xlink:href="#ArialMT-30"/>
      </g>
     </g>
    </g>
    <g id="xtick_6">
     <g id="line2d_16">
      <path clip-path="url(#p0518678b27)" d="M 410.438211 356.4 
L 410.438211 39.6 
" style="fill:none;stroke:#ffffff;stroke-linecap:round;"/>
     </g>
     <g id="line2d_17">
      <g>
       <use style="fill:#262626;stroke:#262626;" x="410.438210766" xlink:href="#m9fea6ae6d3" y="356.4"/>
      </g>
     </g>
     <g id="line2d_18">
      <g>
       <use style="fill:#262626;stroke:#262626;" x="410.438210766" xlink:href="#m9fea6ae6d3" y="39.6"/>
      </g>
     </g>
     <g id="text_6">
      <!-- 1000 -->
      <defs>
       <path d="M 37.25 0 
L 28.46875 0 
L 28.46875 56 
Q 25.296875 52.984375 20.140625 49.953125 
Q 14.984375 46.921875 10.890625 45.40625 
L 10.890625 53.90625 
Q 18.265625 57.375 23.78125 62.296875 
Q 29.296875 67.234375 31.59375 71.875 
L 37.25 71.875 
z
" id="ArialMT-31"/>
      </defs>
      <g style="fill:#262626;" transform="translate(399.316335766 370.5578125)scale(0.1 -0.1)">
       <use xlink:href="#ArialMT-31"/>
       <use x="55.615234375" xlink:href="#ArialMT-30"/>
       <use x="111.23046875" xlink:href="#ArialMT-30"/>
       <use x="166.845703125" xlink:href="#ArialMT-30"/>
      </g>
     </g>
    </g>
    <g id="xtick_7">
     <g id="line2d_19">
      <path clip-path="url(#p0518678b27)" d="M 478.125853 356.4 
L 478.125853 39.6 
" style="fill:none;stroke:#ffffff;stroke-linecap:round;"/>
     </g>
     <g id="line2d_20">
      <g>
       <use style="fill:#262626;stroke:#262626;" x="478.125852919" xlink:href="#m9fea6ae6d3" y="356.4"/>
      </g>
     </g>
     <g id="line2d_21">
      <g>
       <use style="fill:#262626;stroke:#262626;" x="478.125852919" xlink:href="#m9fea6ae6d3" y="39.6"/>
      </g>
     </g>
     <g id="text_7">
      <!-- 1200 -->
      <g style="fill:#262626;" transform="translate(467.003977919 370.5578125)scale(0.1 -0.1)">
       <use xlink:href="#ArialMT-31"/>
       <use x="55.615234375" xlink:href="#ArialMT-32"/>
       <use x="111.23046875" xlink:href="#ArialMT-30"/>
       <use x="166.845703125" xlink:href="#ArialMT-30"/>
      </g>
     </g>
    </g>
   </g>
   <g id="matplotlib.axis_2">
    <g id="ytick_1">
     <g id="line2d_22">
      <path clip-path="url(#p0518678b27)" d="M 72 356.4 
L 518.4 356.4 
" style="fill:none;stroke:#ffffff;stroke-linecap:round;"/>
     </g>
     <g id="line2d_23">
      <g>
       <use style="fill:#262626;stroke:#262626;" x="72.0" xlink:href="#m9fea6ae6d3" y="356.4"/>
      </g>
     </g>
     <g id="line2d_24">
      <g>
       <use style="fill:#262626;stroke:#262626;" x="518.4" xlink:href="#m9fea6ae6d3" y="356.4"/>
      </g>
     </g>
     <g id="text_8">
      <!-- −10 -->
      <defs>
       <path d="M 52.828125 31.203125 
L 5.5625 31.203125 
L 5.5625 39.40625 
L 52.828125 39.40625 
z
" id="ArialMT-2212"/>
      </defs>
      <g style="fill:#262626;" transform="translate(48.0375 358.98515625)scale(0.1 -0.1)">
       <use xlink:href="#ArialMT-2212"/>
       <use x="58.3984375" xlink:href="#ArialMT-31"/>
       <use x="114.013671875" xlink:href="#ArialMT-30"/>
      </g>
     </g>
    </g>
    <g id="ytick_2">
     <g id="line2d_25">
      <path clip-path="url(#p0518678b27)" d="M 72 303.6 
L 518.4 303.6 
" style="fill:none;stroke:#ffffff;stroke-linecap:round;"/>
     </g>
     <g id="line2d_26">
      <g>
       <use style="fill:#262626;stroke:#262626;" x="72.0" xlink:href="#m9fea6ae6d3" y="303.6"/>
      </g>
     </g>
     <g id="line2d_27">
      <g>
       <use style="fill:#262626;stroke:#262626;" x="518.4" xlink:href="#m9fea6ae6d3" y="303.6"/>
      </g>
     </g>
     <g id="text_9">
      <!-- −5 -->
      <defs>
       <path d="M 4.15625 18.75 
L 13.375 19.53125 
Q 14.40625 12.796875 18.140625 9.390625 
Q 21.875 6 27.15625 6 
Q 33.5 6 37.890625 10.78125 
Q 42.28125 15.578125 42.28125 23.484375 
Q 42.28125 31 38.0625 35.34375 
Q 33.84375 39.703125 27 39.703125 
Q 22.75 39.703125 19.328125 37.765625 
Q 15.921875 35.84375 13.96875 32.765625 
L 5.71875 33.84375 
L 12.640625 70.609375 
L 48.25 70.609375 
L 48.25 62.203125 
L 19.671875 62.203125 
L 15.828125 42.96875 
Q 22.265625 47.46875 29.34375 47.46875 
Q 38.71875 47.46875 45.15625 40.96875 
Q 51.609375 34.46875 51.609375 24.265625 
Q 51.609375 14.546875 45.953125 7.46875 
Q 39.0625 -1.21875 27.15625 -1.21875 
Q 17.390625 -1.21875 11.203125 4.25 
Q 5.03125 9.71875 4.15625 18.75 
" id="ArialMT-35"/>
      </defs>
      <g style="fill:#262626;" transform="translate(53.5984375 306.18515625)scale(0.1 -0.1)">
       <use xlink:href="#ArialMT-2212"/>
       <use x="58.3984375" xlink:href="#ArialMT-35"/>
      </g>
     </g>
    </g>
    <g id="ytick_3">
     <g id="line2d_28">
      <path clip-path="url(#p0518678b27)" d="M 72 250.8 
L 518.4 250.8 
" style="fill:none;stroke:#ffffff;stroke-linecap:round;"/>
     </g>
     <g id="line2d_29">
      <g>
       <use style="fill:#262626;stroke:#262626;" x="72.0" xlink:href="#m9fea6ae6d3" y="250.8"/>
      </g>
     </g>
     <g id="line2d_30">
      <g>
       <use style="fill:#262626;stroke:#262626;" x="518.4" xlink:href="#m9fea6ae6d3" y="250.8"/>
      </g>
     </g>
     <g id="text_10">
      <!-- 0 -->
      <g style="fill:#262626;" transform="translate(59.4390625 253.38515625)scale(0.1 -0.1)">
       <use xlink:href="#ArialMT-30"/>
      </g>
     </g>
    </g>
    <g id="ytick_4">
     <g id="line2d_31">
      <path clip-path="url(#p0518678b27)" d="M 72 198 
L 518.4 198 
" style="fill:none;stroke:#ffffff;stroke-linecap:round;"/>
     </g>
     <g id="line2d_32">
      <g>
       <use style="fill:#262626;stroke:#262626;" x="72.0" xlink:href="#m9fea6ae6d3" y="198.0"/>
      </g>
     </g>
     <g id="line2d_33">
      <g>
       <use style="fill:#262626;stroke:#262626;" x="518.4" xlink:href="#m9fea6ae6d3" y="198.0"/>
      </g>
     </g>
     <g id="text_11">
      <!-- 5 -->
      <g style="fill:#262626;" transform="translate(59.4390625 200.58515625)scale(0.1 -0.1)">
       <use xlink:href="#ArialMT-35"/>
      </g>
     </g>
    </g>
    <g id="ytick_5">
     <g id="line2d_34">
      <path clip-path="url(#p0518678b27)" d="M 72 145.2 
L 518.4 145.2 
" style="fill:none;stroke:#ffffff;stroke-linecap:round;"/>
     </g>
     <g id="line2d_35">
      <g>
       <use style="fill:#262626;stroke:#262626;" x="72.0" xlink:href="#m9fea6ae6d3" y="145.2"/>
      </g>
     </g>
     <g id="line2d_36">
      <g>
       <use style="fill:#262626;stroke:#262626;" x="518.4" xlink:href="#m9fea6ae6d3" y="145.2"/>
      </g>
     </g>
     <g id="text_12">
      <!-- 10 -->
      <g style="fill:#262626;" transform="translate(53.878125 147.78515625)scale(0.1 -0.1)">
       <use xlink:href="#ArialMT-31"/>
       <use x="55.615234375" xlink:href="#ArialMT-30"/>
      </g>
     </g>
    </g>
    <g id="ytick_6">
     <g id="line2d_37">
      <path clip-path="url(#p0518678b27)" d="M 72 92.4 
L 518.4 92.4 
" style="fill:none;stroke:#ffffff;stroke-linecap:round;"/>
     </g>
     <g id="line2d_38">
      <g>
       <use style="fill:#262626;stroke:#262626;" x="72.0" xlink:href="#m9fea6ae6d3" y="92.4"/>
      </g>
     </g>
     <g id="line2d_39">
      <g>
       <use style="fill:#262626;stroke:#262626;" x="518.4" xlink:href="#m9fea6ae6d3" y="92.4"/>
      </g>
     </g>
     <g id="text_13">
      <!-- 15 -->
      <g style="fill:#262626;" transform="translate(53.878125 94.98515625)scale(0.1 -0.1)">
       <use xlink:href="#ArialMT-31"/>
       <use x="55.615234375" xlink:href="#ArialMT-35"/>
      </g>
     </g>
    </g>
    <g id="ytick_7">
     <g id="line2d_40">
      <path clip-path="url(#p0518678b27)" d="M 72 39.6 
L 518.4 39.6 
" style="fill:none;stroke:#ffffff;stroke-linecap:round;"/>
     </g>
     <g id="line2d_41">
      <g>
       <use style="fill:#262626;stroke:#262626;" x="72.0" xlink:href="#m9fea6ae6d3" y="39.6"/>
      </g>
     </g>
     <g id="line2d_42">
      <g>
       <use style="fill:#262626;stroke:#262626;" x="518.4" xlink:href="#m9fea6ae6d3" y="39.6"/>
      </g>
     </g>
     <g id="text_14">
      <!-- 20 -->
      <g style="fill:#262626;" transform="translate(53.878125 42.18515625)scale(0.1 -0.1)">
       <use xlink:href="#ArialMT-32"/>
       <use x="55.615234375" xlink:href="#ArialMT-30"/>
      </g>
     </g>
    </g>
   </g>
   <g id="line2d_43">
    <path clip-path="url(#p0518678b27)" d="M 79.107202 246.773958 
L 86.214405 234.174166 
L 100.090371 221.792073 
L 110.581956 216.023251 
L 118.366035 212.682516 
L 130.54981 208.441475 
L 137.657013 206.358923 
L 153.225171 202.491067 
L 161.686126 200.689827 
L 168.116452 199.431126 
L 171.162396 198.864012 
L 179.961789 197.318575 
L 190.453374 195.632742 
L 197.560576 194.57355 
L 202.298711 193.900226 
L 213.128734 192.44887 
L 227.004701 190.744115 
L 240.880667 189.185619 
L 246.295679 188.611917 
L 253.402881 187.885406 
L 265.586657 186.703771 
L 279.462623 185.445405 
L 289.954208 184.548632 
L 300.445792 183.694029 
L 303.153298 183.479856 
L 313.644882 182.672985 
L 320.752085 182.146059 
L 332.935861 181.276842 
L 341.735254 180.673956 
L 347.488704 180.290304 
L 359.334041 179.525047 
L 368.133434 178.976723 
L 376.932828 178.444456 
L 385.732221 177.927333 
L 394.531615 177.424514 
L 406.71539 176.750497 
L 417.206975 176.18947 
L 424.314177 175.819024 
L 433.113571 175.370596 
L 443.605155 174.85 
L 452.404549 174.42458 
L 459.511751 174.088096 
L 468.311145 173.679945 
L 468.988021 173.648925 
L 479.479606 173.174765 
L 491.663381 172.639214 
L 503.847157 172.118991 
L 510.954359 171.822264 
L 518.061562 171.530303 
" style="fill:none;stroke:#4c72b0;stroke-linecap:round;stroke-width:1.75;"/>
   </g>
   <g id="line2d_44">
    <path clip-path="url(#p0518678b27)" d="M 79.107202 268.301737 
L 89.598787 253.058613 
L 98.39818 246.242235 
L 108.889765 240.616532 
L 115.996967 237.654614 
L 129.872934 233.046159 
L 138.672328 230.666691 
L 145.77953 228.963857 
L 156.271114 226.728668 
L 163.378317 225.367477 
L 171.839272 223.878783 
L 189.099621 221.198002 
L 201.283397 219.533993 
L 208.390599 218.634323 
L 216.513116 217.661835 
L 232.081274 215.941852 
L 244.265049 214.708702 
L 253.064443 213.871186 
L 265.248218 212.776396 
L 277.431994 211.748563 
L 286.231387 211.043471 
L 298.415163 210.11358 
L 310.598939 209.232439 
L 317.706141 208.738991 
L 322.105838 208.440626 
L 341.058378 207.212662 
L 351.549962 206.569587 
L 357.980288 206.187267 
L 366.779682 205.677796 
L 370.502502 205.466814 
L 380.994086 204.886089 
L 389.79348 204.414035 
L 398.592873 203.954876 
L 402.99257 203.729915 
L 420.252919 202.875347 
L 423.637301 202.712761 
L 435.821077 202.140137 
L 446.312661 201.662206 
L 453.419864 201.345997 
L 462.219257 200.962566 
L 471.01865 200.587685 
L 475.756785 200.389237 
L 486.24837 199.957977 
L 493.355572 199.671995 
L 499.109022 199.443996 
L 506.216224 199.166555 
L 513.323427 198.893618 
L 527.199393 198.373182 
L 541.07536 197.868376 
" style="fill:none;stroke:#55a868;stroke-linecap:round;stroke-width:1.75;"/>
   </g>
   <g id="line2d_45">
    <path clip-path="url(#p0518678b27)" d="M 85.875967 204.201796 
L 106.520697 194.248416 
L 115.320091 191.768729 
L 125.811676 189.400255 
L 132.918878 188.04548 
L 137.995451 187.171336 
L 145.102654 186.054351 
L 150.856103 185.226978 
L 155.594238 184.589741 
L 167.101137 183.181303 
L 177.592722 182.03844 
L 186.053677 181.196655 
L 193.160879 180.536481 
L 201.960273 179.770817 
L 209.067475 179.189335 
L 219.55906 178.383857 
L 235.127218 177.288463 
L 242.23442 176.822727 
L 251.033813 176.272329 
L 261.525398 175.650398 
L 268.6326 175.248354 
L 275.739803 174.860586 
L 291.307961 174.05644 
L 296.046096 173.823006 
L 303.153298 173.481951 
L 313.306444 173.012496 
L 320.413647 172.695487 
L 332.597422 172.172574 
L 337.673995 171.961874 
L 349.180895 171.498821 
L 356.288097 171.222326 
L 370.164064 170.701879 
L 370.84094 170.677115 
L 376.932828 170.456729 
L 390.808795 169.970746 
L 394.193177 169.855423 
L 409.761334 169.340082 
L 418.560728 169.05921 
L 420.929795 168.984809 
L 429.729189 168.712817 
L 436.836391 168.497971 
L 447.327976 168.188348 
L 462.896133 167.744502 
L 471.695527 167.501388 
L 475.418347 167.40014 
L 485.909932 167.119752 
L 491.663381 166.968993 
L 498.770584 166.78559 
L 507.569977 166.562705 
" style="fill:none;stroke:#c44e52;stroke-linecap:round;stroke-width:1.75;"/>
   </g>
   <g id="line2d_46">
    <path clip-path="url(#p0518678b27)" d="M 79.107202 319.335379 
L 86.214405 292.100531 
L 96.705989 270.380546 
L 107.197574 256.474019 
L 124.457923 240.795334 
L 140.02608 230.584247 
L 153.902047 223.29044 
L 162.70144 219.280764 
L 176.577407 213.687438 
L 187.068992 209.930993 
L 197.560576 206.502549 
L 202.975588 204.843555 
L 207.375284 203.545367 
L 217.866869 200.612505 
L 226.666262 198.310988 
L 232.419712 196.875906 
L 241.219105 194.777705 
L 251.71069 192.414162 
L 263.894466 189.836741 
L 277.770432 187.093577 
L 284.877635 185.759377 
L 293.677028 184.167912 
L 300.78423 182.927954 
L 307.891433 181.725933 
L 320.075208 179.747198 
L 327.182411 178.637342 
L 342.750569 176.310519 
L 356.964973 174.300037 
L 367.456558 172.879428 
L 381.332525 171.076141 
L 393.177862 169.599633 
L 400.285064 168.739647 
L 410.776649 167.503585 
L 421.268234 166.305224 
L 428.375436 165.513713 
L 435.482638 164.737831 
L 442.589841 163.976974 
L 451.389234 163.054928 
L 460.188628 162.154023 
L 470.680212 161.106185 
L 481.171797 160.085567 
L 488.278999 159.408943 
L 503.847157 157.966313 
L 514.338741 157.023148 
L 526.522517 155.955537 
L 537.014102 155.058893 
L 550.890068 153.903589 
L 559.689462 153.188176 
L 575.257619 151.953503 
" style="fill:none;stroke:#8172b2;stroke-linecap:round;stroke-width:1.75;"/>
   </g>
   <g id="line2d_47">
    <path clip-path="url(#p0518678b27)" d="M 80.799393 305.930802 
L 92.983169 270.031453 
L 105.166945 251.118686 
L 113.966338 241.398024 
L 124.457923 232.180119 
L 140.364519 221.239656 
L 155.932676 212.764596 
L 168.45489 207.020106 
L 177.254284 203.41365 
L 184.023048 200.839028 
L 194.514632 197.140778 
L 203.314026 194.275518 
L 212.113419 191.59617 
L 219.220622 189.552184 
L 228.020015 187.154095 
L 235.127218 185.313928 
L 237.834723 184.633924 
L 246.634117 182.498176 
L 247.310993 182.338372 
L 257.802578 179.937343 
L 266.601971 178.025896 
L 277.093556 175.856746 
L 287.58514 173.795839 
L 294.692343 172.45596 
L 301.799545 171.158179 
L 312.29113 169.313973 
L 319.73677 168.053397 
L 326.843973 166.884975 
L 329.551478 166.448413 
L 341.735254 164.539042 
L 357.303412 162.221083 
L 367.794996 160.729263 
L 378.286581 159.289445 
L 393.854738 157.241366 
L 406.038514 155.706478 
L 413.145716 154.836777 
L 425.329492 153.387179 
L 432.436694 152.564491 
L 446.312661 151.004028 
L 455.112055 150.044162 
L 467.29583 148.750895 
L 481.171797 147.325696 
L 488.278999 146.614325 
L 495.386202 145.914997 
L 509.262168 144.582847 
L 516.369371 143.91681 
L 525.845641 143.045142 
L 531.260652 142.555181 
L 538.367854 141.920803 
" style="fill:none;stroke:#ccb974;stroke-linecap:round;stroke-width:1.75;"/>
   </g>
   <g id="line2d_48">
    <path clip-path="url(#p0518678b27)" d="M 79.107202 190.238507 
L 89.260349 184.774289 
L 103.136315 181.141161 
L 113.6279 179.352837 
L 124.119484 177.968662 
L 137.995451 176.51503 
L 145.102654 175.885173 
L 162.363002 174.579812 
L 169.470205 174.113561 
L 176.577407 173.680139 
L 188.761183 173.001483 
L 194.514632 172.705273 
L 203.314026 172.278132 
L 212.113419 171.878705 
L 219.220622 171.573995 
L 228.020015 171.216497 
L 245.280364 170.570335 
L 262.540713 169.98558 
L 271.340106 169.707557 
L 278.447309 169.491818 
L 293.33859 169.062907 
L 312.29113 168.556961 
L 321.090523 168.335479 
L 329.889917 168.121688 
L 340.381501 167.876118 
L 349.180895 167.677448 
L 363.056861 167.376629 
L 378.625019 167.055742 
L 390.808795 166.815781 
L 397.915997 166.680003 
L 405.023199 166.547155 
L 410.438211 166.447827 
L 419.237604 166.289759 
L 429.729189 166.106447 
L 440.220773 165.928434 
L 447.327976 165.810704 
L 457.81956 165.640924 
L 467.29583 165.491497 
L 476.095224 165.355917 
L 483.202426 165.248548 
L 490.309629 165.143018 
L 499.785898 165.005068 
L 510.277483 164.855858 
L 517.384685 164.756796 
L 524.491888 164.659302 
L 534.983472 164.518146 
L 550.55163 164.314476 
L 559.012585 164.206548 
L 567.811979 164.096274 
" style="fill:none;stroke:#64b5cd;stroke-linecap:round;stroke-width:1.75;"/>
   </g>
   <g id="line2d_49">
    <path clip-path="url(#p0518678b27)" d="M 84.522214 302.24358 
L 98.39818 283.39653 
L 108.889765 274.939792 
L 117.689158 269.533597 
L 124.796361 265.879852 
L 133.595754 261.984276 
L 140.702957 259.224676 
L 154.578923 254.575725 
L 165.070508 251.553214 
L 175.562092 248.853893 
L 186.053677 246.415275 
L 193.160879 244.887628 
L 205.344655 242.466192 
L 214.144049 240.851264 
L 222.943442 239.333367 
L 238.5116 236.85275 
L 249.003184 235.308609 
L 257.802578 234.082525 
L 259.833207 233.807835 
L 266.940409 232.869274 
L 277.093556 231.586195 
L 284.200758 230.725291 
L 293.000152 229.698507 
L 305.183927 228.342348 
L 313.983321 227.40627 
L 321.090523 226.674729 
L 328.197726 225.96377 
L 335.304928 225.272267 
L 347.488704 224.129152 
L 354.595906 223.48546 
L 371.856255 221.98725 
L 380.655648 221.256329 
L 389.455042 220.545956 
L 399.946626 219.724271 
L 407.053829 219.182447 
L 411.791964 218.82758 
L 420.591357 218.181476 
L 431.082942 217.432107 
L 442.589841 216.634989 
L 454.773616 215.81752 
L 463.57301 215.243149 
L 472.372403 214.681543 
L 481.171797 214.132147 
L 491.663381 213.492335 
L 498.770584 213.067938 
L 505.877786 212.650551 
L 519.753753 211.854999 
L 526.860955 211.457019 
L 542.429113 210.606554 
" style="fill:none;stroke:#4c72b0;stroke-linecap:round;stroke-width:1.75;"/>
   </g>
   <g id="line2d_50">
    <path clip-path="url(#p0518678b27)" d="M 80.799393 208.338003 
L 94.67536 211.536372 
L 105.166945 212.821249 
L 113.966338 213.616331 
L 121.073541 214.144954 
L 131.565125 214.799599 
L 141.718271 215.331398 
L 148.825474 215.659392 
L 158.301744 216.052393 
L 167.101137 216.380446 
L 177.592722 216.734034 
L 188.084306 217.054099 
L 196.8837 217.300976 
L 203.990902 217.487993 
L 217.866869 217.825744 
L 228.358453 218.060425 
L 245.618802 218.414224 
L 257.802578 218.643384 
L 258.479454 218.65567 
L 265.586657 218.782052 
L 276.078241 218.96038 
L 284.877635 219.103013 
L 291.984837 219.213977 
L 307.552995 219.445011 
L 316.352388 219.56893 
L 323.459591 219.665804 
L 330.566793 219.759977 
L 337.673995 219.851597 
L 346.473389 219.961693 
L 349.180895 219.99486 
L 359.672479 220.12039 
L 362.041547 220.148102 
L 374.225322 220.287135 
L 381.332525 220.365672 
L 390.131918 220.460446 
L 398.931312 220.552633 
L 400.961941 220.573555 
L 411.453525 220.679632 
L 420.252919 220.766103 
L 432.436694 220.882291 
L 448.004852 221.025167 
L 455.112055 221.088436 
L 468.988021 221.20865 
L 482.863988 221.324733 
L 493.355572 221.409929 
L 500.462775 221.466445 
L 517.723124 221.599889 
L 524.830326 221.65334 
L 531.59909 221.703471 
" style="fill:none;stroke:#55a868;stroke-linecap:round;stroke-width:1.75;"/>
   </g>
   <g id="line2d_51">
    <path clip-path="url(#p0518678b27)" d="M 82.491585 293.356144 
L 91.290978 269.535194 
L 98.39818 257.267812 
L 107.197574 246.016351 
L 114.304776 238.822992 
L 123.10417 231.432386 
L 130.211372 226.339595 
L 137.318575 221.834204 
L 144.425777 217.794618 
L 146.117968 216.891328 
L 153.225171 213.310066 
L 162.024564 209.287237 
L 170.823958 205.639867 
L 177.93116 202.92365 
L 184.699924 200.501157 
L 191.807127 198.109362 
L 193.499318 197.560815 
L 200.60652 195.337414 
L 206.021531 193.724371 
L 213.128734 191.70344 
L 220.235936 189.781824 
L 227.004701 188.035518 
L 239.188476 185.076151 
L 250.356937 182.547054 
L 259.156331 180.66358 
L 267.955724 178.866657 
L 272.693859 177.932226 
L 279.801061 176.571151 
L 290.292646 174.644736 
L 299.092039 173.099126 
L 312.968006 170.779515 
L 331.243669 167.920353 
L 336.997119 167.061852 
L 350.873086 165.065724 
L 361.703108 163.57561 
L 378.963457 161.31219 
L 387.762851 160.206813 
L 399.946626 158.726103 
L 410.438211 157.49448 
L 426.006368 155.735538 
L 433.113571 154.95811 
L 446.989538 153.483415 
L 454.09674 152.749083 
L 464.588324 151.689662 
L 471.695527 150.987956 
L 480.49492 150.136264 
L 487.602123 149.461647 
L 498.093707 148.48658 
L 513.661865 147.08308 
" style="fill:none;stroke:#c44e52;stroke-linecap:round;stroke-width:1.75;"/>
   </g>
   <g id="line2d_52">
    <path clip-path="url(#p0518678b27)" d="M 74.030629 189.408006 
L 79.784079 187.001462 
L 88.583472 185.646929 
L 90.275663 185.472915 
L 105.843821 184.369365 
L 108.889765 184.215026 
L 115.996967 183.899487 
L 123.10417 183.631302 
L 135.287945 183.248348 
L 140.364519 183.110161 
L 152.548294 182.816442 
L 166.424261 182.531789 
L 180.300227 182.286235 
L 195.868385 182.04569 
L 213.128734 181.812057 
L 228.696892 181.624652 
L 234.111903 181.563807 
L 242.911296 181.469142 
L 253.402881 181.362446 
L 268.971039 181.214987 
L 276.078241 181.151504 
L 284.877635 181.075901 
L 297.06141 180.976225 
L 305.860804 180.907538 
L 314.660197 180.841388 
L 325.151782 180.765583 
L 332.258984 180.715995 
L 341.058378 180.656444 
L 349.857771 180.59881 
L 351.8884 180.585769 
L 364.072176 180.509458 
L 374.56376 180.446254 
L 383.363154 180.394911 
L 390.470356 180.354491 
L 391.824109 180.346894 
L 400.623503 180.298285 
L 407.730705 180.259965 
L 412.130402 180.236648 
L 420.929795 180.190904 
L 428.036998 180.154792 
L 436.836391 180.111067 
L 443.943594 180.076514 
L 456.127369 180.018789 
L 471.695527 179.947637 
L 485.571494 179.886517 
L 493.694011 179.851684 
L 502.493404 179.814698 
L 509.600607 179.785372 
L 518.4 179.749716 
" style="fill:none;stroke:#8172b2;stroke-linecap:round;stroke-width:1.75;"/>
   </g>
   <g id="line2d_53">
    <path clip-path="url(#p0518678b27)" d="M 74.030629 129.36 
L 79.784079 55.44 
L 88.583472 324.72 
L 90.275663 139.92 
L 105.843821 335.28 
L 108.889765 108.24 
L 115.996967 234.96 
L 123.10417 166.32 
L 135.287945 250.8 
L 140.364519 87.12 
L 152.548294 277.2 
L 166.424261 250.8 
L 180.300227 192.72 
L 195.868385 139.92 
L 213.128734 203.28 
L 228.696892 245.52 
L 234.111903 102.96 
L 242.911296 203.28 
L 253.402881 102.96 
L 268.971039 256.08 
L 276.078241 113.52 
L 284.877635 224.4 
L 297.06141 150.48 
L 305.860804 271.92 
L 314.660197 245.52 
L 325.151782 234.96 
L 332.258984 208.56 
L 341.058378 293.04 
L 349.857771 256.08 
L 351.8884 113.52 
L 364.072176 97.68 
L 374.56376 150.48 
L 383.363154 171.6 
L 390.470356 155.76 
L 391.824109 155.76 
L 400.623503 129.36 
L 407.730705 303.6 
L 412.130402 39.6 
L 420.929795 124.08 
L 428.036998 208.56 
L 436.836391 219.12 
L 443.943594 192.72 
L 456.127369 145.2 
L 471.695527 97.68 
L 485.571494 97.68 
L 493.694011 108.24 
L 502.493404 245.52 
L 509.600607 213.84 
L 518.4 124.08 
" style="fill:none;stroke:#ccb974;stroke-linecap:round;stroke-width:1.75;"/>
   </g>
   <g id="patch_3">
    <path d="M 72 39.6 
L 518.4 39.6 
" style="fill:none;"/>
   </g>
   <g id="patch_4">
    <path d="M 518.4 356.4 
L 518.4 39.6 
" style="fill:none;"/>
   </g>
   <g id="patch_5">
    <path d="M 72 356.4 
L 518.4 356.4 
" style="fill:none;"/>
   </g>
   <g id="patch_6">
    <path d="M 72 356.4 
L 72 39.6 
" style="fill:none;"/>
   </g>
  </g>
 </g>
 <defs>
  <clipPath id="p0518678b27">
   <rect height="316.8" width="446.4" x="72.0" y="39.6"/>
  </clipPath>
 </defs>
</svg>
